<?xml version="1.0" standalone="no"?>
<!DOCTYPE svg PUBLIC "-//W3C//DTD SVG 20010904//EN"
 "http://www.w3.org/TR/2001/REC-SVG-20010904/DTD/svg10.dtd">
<svg version="1.0" xmlns="http://www.w3.org/2000/svg"
 width="1104.000000pt" height="1104.000000pt" viewBox="0 0 1104.000000 1104.000000"
 preserveAspectRatio="xMidYMid meet">
<metadata>
Created by potrace 1.11, written by Peter Selinger 2001-2013
</metadata>
<g transform="translate(0.000000,1104.000000) scale(0.100000,-0.100000)"
fill="#000000" stroke="none">
<path d="M5339 11036 c-2 -2 -54 -7 -116 -10 -62 -3 -127 -8 -145 -10 -18 -3
-57 -7 -86 -11 -67 -7 -109 -13 -207 -30 -44 -8 -93 -17 -110 -20 -16 -2 -41
-7 -55 -10 -14 -4 -36 -8 -50 -11 -14 -3 -86 -23 -160 -44 -74 -22 -142 -42
-150 -44 -8 -3 -43 -16 -77 -29 -34 -14 -64 -22 -67 -19 -3 3 -6 1 -6 -5 0 -6
-10 -13 -23 -17 -13 -3 -59 -22 -103 -42 -43 -21 -82 -37 -86 -36 -5 1 -8 -3
-8 -8 0 -6 -5 -10 -12 -10 -17 0 -238 -130 -293 -172 -5 -5 -28 -22 -50 -38
-61 -47 -105 -82 -140 -115 -18 -16 -44 -39 -56 -51 -36 -31 -149 -154 -189
-203 -45 -57 -150 -208 -150 -217 0 -4 -6 -15 -14 -23 -8 -9 -26 -40 -41 -70
l-27 -53 -41 38 c-23 22 -43 42 -45 47 -2 4 -10 7 -17 7 -7 0 -15 3 -17 8 -1
4 -28 27 -58 52 -90 74 -102 84 -129 109 -14 12 -57 51 -96 85 -38 33 -96 87
-130 118 -33 31 -82 78 -110 103 -27 26 -78 73 -111 106 l-61 59 -28 -22 c-15
-11 -48 -44 -74 -71 -25 -28 -54 -59 -63 -69 -10 -10 -18 -21 -18 -24 0 -3 -7
-12 -16 -21 -13 -13 -80 -111 -121 -178 -15 -23 -93 -183 -93 -190 0 -2 -5
-16 -12 -32 -6 -15 -12 -32 -14 -38 -1 -5 -12 -46 -24 -90 -17 -58 -23 -115
-26 -210 -3 -132 5 -195 41 -310 27 -85 127 -275 145 -275 5 0 11 -8 15 -19
16 -51 352 -351 394 -351 6 0 11 -3 11 -8 0 -7 22 -21 73 -44 15 -7 27 -16 27
-20 0 -4 6 -8 13 -8 22 0 47 -34 46 -61 -1 -13 2 -44 5 -69 4 -25 9 -70 11
-100 3 -30 7 -73 9 -95 2 -22 7 -73 10 -113 4 -40 9 -92 11 -115 3 -23 7 -78
10 -122 7 -92 10 -136 20 -255 7 -87 11 -149 20 -310 3 -52 7 -126 10 -165 6
-83 13 -227 20 -385 3 -63 7 -164 10 -225 5 -129 15 -439 19 -613 2 -67 6
-125 9 -128 4 -4 2 -14 -3 -24 -5 -10 -7 -20 -4 -23 5 -5 15 -325 17 -609 1
-87 4 -158 7 -158 3 0 5 -44 6 -98 1 -120 12 -385 20 -472 3 -36 7 -96 9 -135
10 -166 15 -225 31 -336 2 -20 7 -58 10 -85 10 -93 28 -206 44 -284 5 -25 12
-60 15 -79 3 -19 8 -37 10 -41 2 -3 6 -18 9 -33 4 -15 8 -39 12 -54 3 -15 7
-30 10 -35 3 -4 7 -85 9 -180 3 -95 7 -189 10 -208 3 -19 7 -55 10 -80 3 -25
8 -67 12 -95 4 -27 8 -58 9 -67 1 -10 2 -19 4 -20 1 -2 3 -12 5 -23 1 -11 6
-36 10 -55 4 -19 8 -44 10 -55 2 -11 6 -30 9 -42 3 -13 8 -33 11 -44 30 -137
120 -416 169 -524 8 -16 24 -52 36 -80 47 -105 132 -269 143 -273 4 -2 7 -8 7
-13 0 -5 12 -28 28 -52 15 -23 29 -46 32 -52 9 -18 83 -130 89 -135 4 -3 14
-16 22 -30 9 -14 56 -74 105 -135 118 -148 295 -324 448 -447 11 -10 26 -22
32 -26 13 -12 126 -93 150 -110 86 -57 145 -92 154 -92 5 0 10 -3 10 -7 0 -5
10 -13 23 -19 12 -5 48 -25 80 -42 31 -18 57 -30 57 -27 0 4 13 -3 29 -14 16
-12 32 -21 36 -21 3 0 27 -10 53 -21 54 -25 219 -88 244 -94 20 -4 126 -35
148 -43 8 -3 24 -7 35 -8 11 -2 41 -9 66 -15 78 -18 179 -34 192 -31 4 1 7 -1
7 -5 0 -5 17 -8 38 -9 59 -1 277 -16 280 -19 2 -2 -16 -10 -40 -19 l-43 -15
40 5 c22 2 48 7 58 10 11 3 29 7 40 9 12 2 33 6 47 9 14 2 61 7 105 11 140 10
334 38 403 59 9 3 30 7 46 10 60 11 288 85 376 123 97 42 247 116 302 149 35
20 72 42 83 48 27 15 137 88 152 101 6 5 37 28 67 49 31 22 56 43 56 48 0 4 6
8 14 8 8 0 16 3 18 8 2 4 34 34 73 67 88 76 237 226 287 288 21 27 38 46 38
42 0 -5 12 10 26 31 14 21 31 44 37 49 7 6 28 33 47 60 36 52 38 55 70 94 11
13 20 30 20 38 0 7 5 13 10 13 6 0 10 6 10 14 0 8 4 16 8 18 34 14 292 522
292 574 0 8 4 14 8 14 5 0 9 6 10 13 0 6 19 66 42 132 37 109 86 283 96 345 2
14 9 45 14 70 6 25 12 61 14 80 3 19 8 46 11 60 3 14 8 50 10 80 3 30 7 65 9
78 24 112 24 583 1 737 -5 33 -17 144 -17 160 0 6 2 24 5 40 3 17 8 59 12 95
4 36 8 76 10 90 19 128 53 745 59 1052 1 48 4 90 8 93 4 4 3 17 -1 29 -4 11
-6 32 -5 46 2 14 6 122 9 240 5 200 10 385 20 705 6 208 14 423 20 520 3 50 7
142 10 205 9 202 16 333 30 525 2 39 7 104 9 145 8 119 24 325 26 325 0 0 3
32 5 70 2 39 7 88 9 110 3 22 8 74 11 116 3 42 8 87 11 100 2 13 7 58 9 99 3
41 7 84 9 95 3 11 5 27 5 36 1 9 9 20 19 23 9 3 26 12 37 19 123 74 164 100
187 119 15 13 44 34 64 48 64 44 239 224 286 296 39 59 86 149 119 229 16 38
39 140 45 200 6 54 8 172 4 185 -1 3 -3 23 -6 45 -5 44 -22 132 -31 155 -3 8
-7 20 -9 25 -11 39 -57 153 -69 172 -9 13 -12 23 -9 23 4 0 0 8 -9 18 -8 9
-15 19 -14 22 0 3 -6 16 -15 30 -56 92 -83 133 -93 144 -6 6 -14 16 -16 23
-10 28 -200 233 -215 233 -4 0 -16 -10 -28 -22 -12 -13 -76 -73 -141 -134
-215 -200 -245 -228 -340 -309 -38 -33 -72 -62 -75 -65 -3 -3 -30 -25 -60 -50
-80 -64 -81 -65 -129 -108 l-45 -40 -43 76 c-24 41 -43 79 -43 84 0 4 -4 8
-10 8 -5 0 -10 6 -10 13 0 8 -9 22 -20 32 -11 10 -20 24 -20 31 0 7 -3 14 -7
16 -5 2 -21 21 -38 43 -16 22 -33 45 -37 50 -72 93 -237 257 -328 326 -24 19
-53 42 -65 52 -32 29 -177 123 -260 169 -59 33 -171 88 -235 116 -90 38 -201
81 -215 82 -3 0 -29 9 -57 19 -45 16 -132 43 -188 57 -33 8 -146 35 -165 38
-57 12 -144 27 -175 31 -19 3 -48 8 -65 11 -16 4 -46 8 -65 9 -32 3 -102 10
-205 21 -55 6 -521 14 -526 10z"/>
</g>
</svg>
